<?xml version="1.0" encoding="UTF-8" standalone="no"?>
<!DOCTYPE svg PUBLIC "-//W3C//DTD SVG 1.1//EN" "http://www.w3.org/Graphics/SVG/1.1/DTD/svg11.dtd">
<svg width="100%" height="100%" viewBox="0 0 135 18" version="1.1" xmlns="http://www.w3.org/2000/svg" xmlns:xlink="http://www.w3.org/1999/xlink" xml:space="preserve" xmlns:serif="http://www.serif.com/" style="fill-rule:evenodd;clip-rule:evenodd;stroke-linejoin:round;stroke-miterlimit:2;">
    <g transform="matrix(1,0,0,1,-52.2298,-24.3245)">
        <g transform="matrix(1,0,0,1,5,-1.66667)">
            <g id="Logo_curves" transform="matrix(1.56972,0,0,1.56972,10.2432,-5.6276)">
                <g transform="matrix(1,0,0,1,3,-32.9233)">
                    <path d="M77.646,55.326L72.568,55.326L72.568,57.513L76.56,57.513L76.56,59.521L72.568,59.521L72.568,61.849L77.646,61.849L77.646,63.958L70.029,63.958L70.029,53.294L77.646,53.294L77.646,55.326Z" style="fill-rule:nonzero;"/>
                    <path d="M85.919,63.958L83.661,63.958C83.589,63.646 83.552,63.234 83.552,62.724C83.157,63.286 82.763,63.66 82.37,63.845C81.978,64.03 81.532,64.122 81.033,64.122C80.294,64.122 79.697,63.922 79.242,63.521C78.787,63.12 78.56,62.581 78.56,61.904C78.56,61.409 78.693,60.953 78.958,60.536C79.223,60.12 79.649,59.793 80.237,59.556C80.825,59.319 81.896,59.143 83.451,59.029L83.451,58.576C83.451,57.81 83.069,57.427 82.306,57.427C81.49,57.427 81.036,57.81 80.943,58.576L78.794,58.372C78.935,57.477 79.359,56.841 80.068,56.466C80.776,56.091 81.578,55.904 82.474,55.904C83.01,55.904 83.516,55.966 83.99,56.091C84.464,56.216 84.833,56.404 85.099,56.654C85.365,56.904 85.544,57.168 85.638,57.447C85.732,57.725 85.779,58.211 85.779,58.904L85.779,62.482C85.779,63.169 85.826,63.661 85.919,63.958ZM83.451,60.177C81.826,60.339 81.013,60.831 81.013,61.654C81.013,61.93 81.099,62.168 81.27,62.368C81.441,62.569 81.685,62.669 82.002,62.669C82.412,62.669 82.756,62.499 83.034,62.158C83.312,61.816 83.451,61.396 83.451,60.896L83.451,60.177Z" style="fill-rule:nonzero;"/>
                    <path d="M89.958,63.958L87.701,63.958L87.701,56.068L89.833,56.068L89.833,57.536C90.161,56.443 90.729,55.896 91.536,55.896C91.651,55.896 91.792,55.904 91.958,55.919L91.958,58.216C91.484,58.216 91.116,58.289 90.853,58.435C90.59,58.581 90.375,58.842 90.208,59.22C90.042,59.598 89.958,60.107 89.958,60.747L89.958,63.958Z" style="fill-rule:nonzero;"/>
                    <path d="M96.201,57.88L96.201,61.216C96.201,61.633 96.263,61.911 96.387,62.052C96.512,62.193 96.805,62.263 97.266,62.263C97.479,62.263 97.725,62.253 98.005,62.232L98.005,63.958C97.328,64.073 96.841,64.13 96.544,64.13C95.576,64.13 94.888,63.944 94.482,63.572C94.076,63.199 93.872,62.526 93.872,61.552L93.872,57.88L92.622,57.88L92.622,56.068L94.005,56.068L94.193,53.74L96.201,53.583L96.201,56.068L97.896,56.068L97.896,57.88L96.201,57.88Z" style="fill-rule:nonzero;"/>
                    <path d="M101.458,53.294L101.458,57.14C101.885,56.316 102.596,55.904 103.591,55.904C104.122,55.904 104.577,56.02 104.954,56.251C105.332,56.483 105.598,56.781 105.751,57.146C105.905,57.51 105.982,58.044 105.982,58.747L105.982,63.958L103.654,63.958L103.654,59.507C103.654,58.976 103.633,58.61 103.591,58.412C103.55,58.214 103.455,58.049 103.307,57.916C103.159,57.783 102.974,57.716 102.751,57.716C102.46,57.716 102.172,57.83 101.887,58.056C101.601,58.283 101.458,58.767 101.458,59.507L101.458,63.958L99.201,63.958L99.201,53.294L101.458,53.294Z" style="fill-rule:nonzero;"/>
                </g>
                <g id="Globe-Earth" serif:id="Globe Earth" transform="matrix(0.124424,9.2023e-33,-1.53372e-33,0.124424,24.0179,15.2396)">
                    <path d="M355.884,109.222C356.04,106.969 356.863,104.853 358.275,103.077C359.187,103.471 360.159,103.806 361.173,104.069C360.707,105.692 360.441,107.424 360.382,109.222L355.884,109.222ZM366.222,116.566L366.222,121.026C364.943,120.597 363.754,119.125 362.902,116.911C363.939,116.719 365.053,116.604 366.222,116.566ZM363.45,120.564C361.871,120.032 360.43,119.15 359.227,117.976C359.954,117.688 360.745,117.434 361.587,117.221C362.088,118.56 362.724,119.697 363.45,120.564ZM361.724,110.778L366.222,110.778L366.222,115.21C364.936,115.252 363.678,115.393 362.474,115.63C362.042,114.128 361.785,112.461 361.724,110.778ZM366.222,104.79L366.222,109.222L361.724,109.222C361.785,107.538 362.042,105.872 362.474,104.371C363.684,104.608 364.942,104.749 366.222,104.79ZM359.227,102.024C360.431,100.85 361.872,99.968 363.45,99.437C362.724,100.302 362.09,101.44 361.587,102.78C360.746,102.566 359.954,102.312 359.227,102.024ZM362.902,103.089C363.754,100.873 364.944,99.402 366.222,98.976L366.222,103.435C365.052,103.396 363.938,103.28 362.902,103.089ZM361.173,115.931C360.161,116.195 359.188,116.529 358.275,116.924C356.863,115.149 356.04,113.032 355.884,110.778L360.382,110.778C360.441,112.575 360.707,114.306 361.173,115.931ZM378.116,110.773C377.959,113.031 377.137,115.149 375.725,116.924C374.811,116.529 373.838,116.195 372.827,115.932C373.292,114.309 373.558,112.577 373.618,110.773L378.116,110.773ZM367.778,103.435L367.778,98.976C369.057,99.402 370.246,100.874 371.098,103.089C370.062,103.28 368.948,103.396 367.778,103.435ZM372.413,102.78C371.911,101.44 371.276,100.302 370.549,99.437C372.127,99.968 373.569,100.85 374.772,102.024C374.045,102.312 373.254,102.566 372.413,102.78ZM372.275,109.222L367.778,109.222L367.778,104.79C369.061,104.748 370.32,104.607 371.525,104.371C371.958,105.87 372.215,107.537 372.275,109.222ZM373.617,109.222C373.558,107.425 373.292,105.694 372.826,104.07C373.839,103.806 374.811,103.472 375.725,103.077C377.137,104.852 377.959,106.968 378.115,109.222L373.617,109.222ZM367.778,115.21L367.778,110.773L372.275,110.773C372.215,112.462 371.958,114.13 371.525,115.629C370.32,115.392 369.061,115.251 367.778,115.21ZM374.773,117.976C373.57,119.15 372.128,120.032 370.549,120.564C371.276,119.697 371.911,118.56 372.413,117.221C373.256,117.435 374.047,117.688 374.773,117.976ZM371.097,116.911C370.246,119.125 369.057,120.596 367.778,121.026L367.778,116.566C368.943,116.604 370.056,116.719 371.097,116.911ZM366.999,97.5C360.108,97.5 354.5,103.108 354.5,110C354.5,116.892 360.108,122.5 366.999,122.5C373.892,122.5 379.5,116.892 379.5,110C379.5,103.108 373.892,97.5 366.999,97.5Z" style="stroke:black;stroke-width:1.02px;"/>
                </g>
                <g transform="matrix(0.199393,0,0,0.235294,16.0212,12.2107)">
                    <path d="M83.507,51.276L70.381,51.974C70.198,45.576 67.253,42.378 61.547,42.378C55.003,42.378 51.73,47.303 51.73,57.153C51.73,62.842 52.62,66.699 54.4,68.725C56.18,70.75 58.666,71.763 61.859,71.763C67.042,71.763 70.209,68.907 71.36,63.196L83.507,63.827C82.723,69.25 80.339,73.373 76.356,76.195C72.373,79.018 67.494,80.429 61.722,80.429C54.643,80.429 48.89,78.359 44.462,74.22C40.035,70.08 37.821,64.358 37.821,57.054C37.821,50.214 39.963,44.614 44.247,40.253C48.531,35.892 54.382,33.712 61.8,33.712C74.652,33.712 81.887,39.567 83.507,51.276Z" style="fill-rule:nonzero;"/>
                    <path d="M106.565,45.499C112.593,45.499 117.296,47.17 120.675,50.513C124.055,53.855 125.744,58.039 125.744,63.063C125.744,68.022 123.989,72.156 120.48,75.465C116.97,78.774 112.306,80.429 106.487,80.429C100.851,80.429 96.343,78.791 92.964,75.515C89.585,72.239 87.895,68.033 87.895,62.897C87.895,59.334 88.658,56.307 90.185,53.816C91.711,51.326 93.805,49.317 96.467,47.79C99.129,46.263 102.495,45.499 106.565,45.499ZM106.878,51.974C104.665,51.974 102.998,52.699 101.878,54.148C100.758,55.598 100.198,58.481 100.198,62.798C100.198,66.76 100.732,69.604 101.8,71.331C102.868,73.058 104.534,73.921 106.8,73.921C108.779,73.921 110.381,73.185 111.605,71.713C112.829,70.241 113.441,67.435 113.441,63.296C113.441,58.891 112.901,55.903 111.82,54.331C110.739,52.759 109.092,51.974 106.878,51.974Z" style="fill-rule:nonzero;"/>
                    <rect x="133.11" y="34.409" width="11.676" height="45.322" style="fill-rule:nonzero;"/>
                    <rect x="154.386" y="34.409" width="11.676" height="45.322" style="fill-rule:nonzero;"/>
                    <path d="M210.18,79.731L198.857,79.731C198.491,78.403 198.308,76.655 198.308,74.485C196.326,76.876 194.351,78.464 192.382,79.25C190.413,80.036 188.176,80.429 185.672,80.429C181.969,80.429 178.976,79.576 176.694,77.872C174.412,76.168 173.271,73.877 173.271,70.999C173.271,68.896 173.936,66.959 175.267,65.188C176.597,63.418 178.735,62.029 181.682,61.021C184.629,60.014 190.001,59.267 197.799,58.78L197.799,56.854C197.799,53.601 195.885,51.974 192.057,51.974C187.969,51.974 185.69,53.601 185.222,56.854L174.447,55.991C175.152,52.184 177.281,49.483 180.833,47.89C184.386,46.296 188.408,45.499 192.901,45.499C195.592,45.499 198.125,45.765 200.502,46.296C202.88,46.827 204.734,47.624 206.066,48.687C207.398,49.749 208.3,50.872 208.77,52.057C209.24,53.241 209.475,55.305 209.475,58.249L209.475,73.456C209.475,76.378 209.71,78.47 210.18,79.731ZM197.799,63.661C189.649,64.347 185.574,66.439 185.574,69.937C185.574,71.11 186.004,72.122 186.863,72.975C187.723,73.827 188.946,74.253 190.534,74.253C192.592,74.253 194.317,73.528 195.709,72.078C197.102,70.628 197.799,68.841 197.799,66.716L197.799,63.661Z" style="fill-rule:nonzero;"/>
                    <path d="M230.79,34.409L230.79,50.413C232.879,47.137 236.145,45.499 240.585,45.499C245.13,45.499 248.722,47.054 251.36,50.164C253.998,53.274 255.317,57.541 255.317,62.964C255.317,68.188 253.96,72.405 251.246,75.614C248.531,78.824 244.616,80.429 239.499,80.429C236.837,80.429 234.67,80.041 233,79.267C231.329,78.492 229.646,76.931 227.949,74.585C227.212,75.227 226.343,76.942 225.344,79.731L219.114,79.731L219.114,34.409L230.79,34.409ZM230.79,66.45C230.79,68.797 231.371,70.567 232.533,71.763C233.696,72.958 235.087,73.556 236.706,73.556C238.639,73.556 240.233,72.831 241.486,71.381C242.74,69.931 243.367,67.114 243.367,62.931C243.367,58.172 242.721,55.183 241.428,53.966C240.135,52.748 238.665,52.14 237.02,52.14C235.113,52.14 233.598,52.826 232.475,54.198C231.351,55.571 230.79,57.519 230.79,60.042L230.79,66.45Z" style="fill-rule:nonzero;"/>
                </g>
            </g>
        </g>
    </g>
</svg>
